<?xml version="1.0" standalone="no"?>
<!DOCTYPE svg PUBLIC "-//W3C//DTD SVG 20010904//EN"
 "http://www.w3.org/TR/2001/REC-SVG-20010904/DTD/svg10.dtd">
<svg version="1.0" xmlns="http://www.w3.org/2000/svg"
 width="512" height="512" viewBox="0 0 1024 1024"
 preserveAspectRatio="xMidYMid meet">
<rect width="1024" height="1024" fill="black"/>
<g transform="translate(0.000000,1024.000000) scale(0.100000,-0.100000)"
fill="#00FFFF" stroke="none">
<path d="M5341 7844 c289 -49 533 -177 744 -388 263 -264 398 -578 412 -961 15
-419 -116 -757 -424 -1086 -115 -122 -147 -189 -151 -317 -7 -162 56 -303 173
-389 92 -69 151 -87 280 -87 99 0 117 3 185 30 94 37 170 89 309 208 176 151
256 198 405 236 390 99 757 -173 792 -588 5 -65 4 -80 -10 -91 -13 -11 -22
-11 -41 -3 -21 10 -25 19 -25 54 0 66 -27 175 -59 244 -151 322 -517 419 -834
221 -39 -25 -126 -92 -192 -149 -175 -150 -250 -195 -383 -229 -359 -92 -683
155 -684 521 -1 162 45 260 192 414 179 187 292 394 358 656 24 95 26 123 27
295 0 163 -3 205 -23 294 -92 412 -350 745 -707 917 -214 102 -333 129 -570
128 -147 0 -185 -4 -283 -27 -522 -122 -915 -556 -997 -1102 -41 -273 0 -542
120 -793 69 -144 136 -240 258 -371 115 -124 170 -222 187 -336 35 -223 -84
-456 -282 -556 -93 -47 -169 -62 -278 -56 -175 9 -319 79 -501 242 -122 110
-239 186 -341 223 -64 24 -87 27 -193 26 -137 -1 -196 -17 -290 -79 -153 -102
-264 -304 -265 -483 0 -35 -4 -44 -25 -54 -55 -25 -69 34 -40 180 30 152 138
325 251 403 119 81 235 119 373 119 197 0 358 -74 571 -264 95 -85 197 -157
263 -186 256 -113 518 -27 635 209 37 74 37 76 37 195 0 114 -2 125 -31 186
-21 43 -61 98 -122 164 -168 183 -278 363 -346 566 -54 162 -67 239 -73 420
-4 138 -2 185 15 285 27 158 69 282 143 424 75 146 163 264 277 372 214 203
465 324 772 372 69 11 304 6 391 -9z m-202 -2774 c15 -7 19 -28 25 -106 31
-441 226 -785 596 -1050 47 -33 147 -98 223 -143 318 -190 470 -365 517 -596
17 -81 15 -227 -5 -298 -66 -248 -292 -449 -549 -489 -85 -13 -126 -3 -126 31
0 28 18 37 102 49 144 21 255 80 360 190 99 103 148 228 148 377 0 149 -37
254 -134 382 -69 90 -179 177 -378 298 -274 167 -430 299 -561 474 -91 122
-188 315 -218 434 -6 26 -14 47 -18 47 -3 0 -17 -35 -29 -78 -71 -233 -243
-483 -455 -661 -94 -78 -175 -133 -369 -250 -327 -197 -458 -381 -458 -641 0
-152 49 -279 148 -382 105 -111 215 -168 365 -191 87 -14 112 -31 91 -64 -15
-25 -53 -27 -147 -8 -156 31 -302 118 -392 233 -171 217 -196 491 -68 735 69
131 234 282 440 403 383 224 576 419 719 728 49 107 90 277 105 433 14 143 25
167 68 143z m-379 -20 c14 -26 -2 -191 -30 -308 -71 -297 -269 -545 -534 -667
-39 -18 -138 -59 -221 -90 -163 -61 -279 -116 -348 -164 -134 -92 -233 -204
-303 -342 -56 -112 -84 -214 -98 -359 l-11 -115 -32 -3 c-28 -3 -33 1 -39 23
-9 38 3 165 26 262 44 185 119 328 244 461 118 124 292 227 540 317 174 63
240 93 327 153 236 160 367 399 399 726 6 60 13 113 16 118 10 16 53 8 64 -12z
m792 -45 c23 -184 33 -238 59 -317 51 -157 118 -266 228 -373 108 -105 236
-176 456 -255 299 -106 497 -241 622 -423 91 -132 144 -264 168 -427 26 -170
18 -216 -37 -208 -18 2 -23 10 -25 38 -15 210 -56 363 -132 489 -64 106 -113
162 -206 237 -99 80 -211 138 -411 215 -287 109 -376 160 -500 283 -169 170
-269 393 -294 659 -11 125 -5 150 38 145 25 -3 28 -8 34 -63z"/>
</g>
</svg>
